<?xml version="1.0" encoding="utf-8"?>
<!-- Generator: Adobe Illustrator 25.0.0, SVG Export Plug-In . SVG Version: 6.00 Build 0)  -->
<svg version="1.1" id="Capa_1" xmlns="http://www.w3.org/2000/svg" xmlns:xlink="http://www.w3.org/1999/xlink" x="0px" y="0px"
	 viewBox="0 0 295 128" style="enable-background:new 0 0 295 128;" xml:space="preserve">
<style type="text/css">
	.st0{fill:none;stroke:#C6815C;stroke-width:1.67;stroke-linecap:round;stroke-linejoin:round;}
	.st1{fill:#C6815C;}
	.st2{font-family:'RoxboroughCF-Thin';}
	.st3{font-size:20.7px;}
	.st4{letter-spacing:-2;}
</style>
<circle class="st0" cx="59.1" cy="58.9" r="23.4"/>
<path class="st0" d="M62.3,35.7c-0.3-8.8-1.2-17.5-2.5-26.2l-0.8-5.2l-0.8,5.2c-1.3,8.7-2.1,17.4-2.5,26.2
	C58,35.4,60.2,35.4,62.3,35.7L62.3,35.7z"/>
<path class="st0" d="M55.9,82.2c0.3,8.8,1.2,17.5,2.5,26.2l0.8,5.2l0.8-5.2c1.3-8.7,2.1-17.4,2.5-26.2C60.2,82.5,58,82.5,55.9,82.2
	L55.9,82.2z"/>
<path class="st0" d="M82.3,62.2c8.8-0.3,17.5-1.2,26.2-2.5l5.2-0.8l-5.2-0.8c-8.7-1.3-17.4-2.1-26.2-2.5
	C82.6,57.8,82.6,60,82.3,62.2L82.3,62.2z"/>
<path class="st0" d="M35.9,55.7c-8.8,0.3-17.5,1.2-26.2,2.5l-5.2,0.8l5.2,0.8c8.7,1.3,17.4,2.1,26.2,2.5c-0.1-1.1-0.2-2.1-0.2-3.2
	C35.7,57.9,35.7,56.8,35.9,55.7z"/>
<path class="st0" d="M49.7,28.6c-3.3-1.6-6.5-5.2-7.3-8.6s-1.8-8.5-6.5-8.3c0,0,4,2.6,3.9,7.1c-0.1,3.1-1.5,7,1,9.6
	c2.5,2.6,4.8,5.1,4.8,8c0,1.4-0.3,2.9-1,4.1l0,0c3.3-2.6,7.1-4.2,11.2-4.8C55.8,35.7,53.9,30.7,49.7,28.6z"/>
<path class="st0" d="M68.5,28.6c3.3-1.6,6.5-5.2,7.3-8.6s1.8-8.5,6.5-8.3c0,0-4,2.6-3.9,7.1c0.1,3.1,1.5,7-1,9.6s-4.8,5.1-4.8,8
	c0,1.4,0.3,2.9,1,4.1l0,0c-3.3-2.6-7.1-4.2-11.2-4.8C62.4,35.7,64.3,30.7,68.5,28.6z"/>
<path class="st0" d="M68.5,89.2c3.3,1.6,6.5,5.2,7.3,8.6s1.8,8.5,6.5,8.3c0,0-4-2.6-3.9-7.1c0.1-3.1,1.5-7-1-9.6s-4.8-5.1-4.8-8
	c0-1.4,0.3-2.9,1-4.1l0,0c-3.3,2.6-7.1,4.2-11.2,4.8C62.3,82.1,64.3,87.2,68.5,89.2z"/>
<path class="st0" d="M49.7,89.2c-3.3,1.6-6.5,5.2-7.3,8.6s-1.8,8.5-6.5,8.3c0,0,4-2.6,3.9-7.1c-0.1-3.1-1.5-7,1-9.6
	c2.5-2.6,4.8-5.1,4.8-8c0-1.4-0.3-2.9-1-4.1l0,0c3.3,2.6,7.1,4.2,11.2,4.8C55.8,82.1,53.9,87.2,49.7,89.2z"/>
<path class="st0" d="M45,40.2c-6.4-6-13.2-11.6-20.3-16.8l-4.2-3.1l3.1,4.2c5.2,7,10.8,13.8,16.8,20.3c0.7-0.9,1.4-1.7,2.1-2.4
	C43.3,41.6,44.1,40.9,45,40.2z"/>
<path class="st0" d="M73.2,77.7c6.4,6,13.2,11.6,20.3,16.8l4.2,3.1l-3.1-4.2c-5.2-7.1-10.8-13.8-16.8-20.3c-0.7,0.9-1.4,1.7-2.1,2.4
	C74.9,76.3,74.1,77,73.2,77.7z"/>
<path class="st0" d="M77.8,44.8c6-6.4,11.6-13.2,16.8-20.3l3.1-4.2l-4.2,3.1c-7.1,5.2-13.8,10.8-20.3,16.8c0.9,0.6,1.7,1.4,2.4,2.1
	C76.5,43.1,77.2,43.9,77.8,44.8z"/>
<path class="st0" d="M40.4,73.1c-6,6.4-11.6,13.2-16.8,20.3l-3.1,4.2l4.2-3.1c7.1-5.2,13.8-10.8,20.3-16.8c-0.9-0.6-1.7-1.3-2.5-2.1
	C41.7,74.8,41,73.9,40.4,73.1z"/>
<path class="st0" d="M89.4,49.5c1.6-3.3,5.2-6.5,8.6-7.2s8.5-1.8,8.3-6.5c0,0-2.6,4-7.1,3.9c-3.1-0.1-7-1.5-9.6,1s-5.1,4.8-8,4.8
	c-1.4,0-2.9-0.3-4.1-1l0,0c2.6,3.3,4.2,7.1,4.8,11.2C82.3,55.6,87.4,53.7,89.4,49.5z"/>
<path class="st0" d="M89.4,68.4c1.6,3.3,5.2,6.5,8.6,7.2s8.5,1.8,8.3,6.5c0,0-2.6-4-7.1-3.9c-3.1,0.1-7,1.5-9.6-1s-5.1-4.8-8-4.8
	c-1.4,0-2.9,0.3-4.1,1l0,0c2.6-3.3,4.2-7.1,4.8-11.3C82.3,62.2,87.4,64.1,89.4,68.4z"/>
<path class="st0" d="M28.8,68.4c-1.6,3.3-5.2,6.5-8.6,7.2s-8.5,1.8-8.3,6.5c0,0,2.6-4,7.1-3.9c3.1,0.1,7,1.5,9.6-1s5.1-4.8,8-4.8
	c1.4,0,2.9,0.3,4.1,1l0,0c-2.6-3.3-4.2-7.1-4.8-11.3C35.9,62.2,30.9,64.1,28.8,68.4z"/>
<path class="st0" d="M28.8,49.5c-1.6-3.3-5.2-6.5-8.6-7.2s-8.5-1.8-8.3-6.5c0,0,2.6,4,7.1,3.9c3.1-0.1,7-1.5,9.6,1s5.1,4.8,8,4.8
	c1.4,0,2.9-0.3,4.1-1l0,0c-2.6,3.3-4.2,7.1-4.8,11.2C35.9,55.6,30.9,53.7,28.8,49.5z"/>
<path class="st0" d="M73.2,55.8c-0.5-0.2-1-0.5-1.3-0.9c-1.9-1.8-4.8-1.8-6.6,0c-0.3,0.4-0.8,0.8-1.3,0.9"/>
<path class="st0" d="M70,55c0,0.8-0.6,1.4-1.4,1.4c-0.8,0-1.4-0.6-1.4-1.4c0-0.8,0.6-1.4,1.4-1.4C69.3,53.5,70,54.2,70,55
	C70,55,70,55,70,55z"/>
<path class="st0" d="M63.4,54.4c0.8-0.7,1.7-1.4,2.6-2c1.3-0.5,2.7-0.6,4-0.3c1,0.7,1.9,1.4,2.6,2.3"/>
<path class="st0" d="M62.7,63.2c0.6,0.6,1,1.4,0.9,2.2c-0.2,1.3-1.5,1.1-2.4,1.2s-1.4,1.2-2.4,1.1s-1.5-1.1-2.4-1.1
	s-2.2,0.1-2.4-1.2c-0.1-0.8,0.2-1.7,0.9-2.2"/>
<path class="st0" d="M57.7,65.7c0,0-1-0.4-0.6-2.1c0.4-1.7,0.9-1.3,0.9-4v-6"/>
<path class="st0" d="M64.1,71.4c-0.7,0.1-1.3,0.1-2,0.1c-0.8,0-1.1-0.2-1.7-0.2c-1.1,0-1.1,0.4-1.8,0.5s-0.6-0.4-1.8-0.5
	c-0.6,0-0.9,0.2-1.7,0.2c-0.6,0-1.3,0-1.9-0.1"/>
<path class="st0" d="M61.6,70.6c0,0-1.2-0.6-1.5-0.5c-0.5,0.2-0.9,0.5-1.4,0.9c-0.4-0.3-0.9-0.6-1.4-0.9c-0.3-0.1-1.5,0.5-1.5,0.5"
	/>
<path class="st0" d="M62.4,72.2c-1.1,0.7-2.3,1.2-3.6,1.4c-1.3-0.2-2.5-0.7-3.6-1.4"/>
<path class="st0" d="M62.4,49.4c0,0,4-4,11.2,0"/>
<path class="st0" d="M45,55.8c0.5-0.2,1-0.5,1.3-0.9c1.9-1.8,4.8-1.8,6.6,0c0.3,0.4,0.8,0.8,1.3,0.9"/>
<path class="st0" d="M48.2,55c0,0.8,0.6,1.4,1.4,1.4s1.4-0.6,1.4-1.4s-0.6-1.4-1.4-1.4S48.2,54.2,48.2,55L48.2,55z"/>
<path class="st0" d="M54.8,54.4c-0.8-0.7-1.7-1.4-2.6-2c-1.3-0.5-2.7-0.6-4-0.3c-1,0.7-1.9,1.4-2.6,2.3"/>
<path class="st0" d="M55.9,49.4c0,0-4-4-11.3,0"/>
<path class="st1" d="M208.5,93.4v0.4h-32.1v-0.4c7.7-0.7,12.1-3.1,8.3-12.8l-2.2-5.5h-42.9l-2.4,5.5c-4.1,9.5,0.3,11.5,6.5,12.8v0.4
	h-20.3v-0.4c4.6-1.3,7.3-3.4,11.4-12.9l24.4-56.2l-0.2-2.6l1.9-1.2l11-6.8c0,0.9,0.2,1.9,2.5,7.6l23.3,58.8
	C201.6,90.1,203.5,92.7,208.5,93.4z M181.7,73.1l-19.9-49.6l-21.5,49.6H181.7z"/>
<path class="st1" d="M264.5,22.8v64.6c0,4,3.9,5.2,8.4,5.7v0.6h-29.2v-0.6c4.5-0.6,8.4-1.8,8.4-5.7V22.3L221.4,95l-31.5-63v42.2
	c0,15,3.9,18.4,8.4,19v0.6h-19v-0.6c4.5-0.6,8.4-1.8,8.4-16.8V27.5c-2-4.4-5-8.2-8.9-11h16.9l30.7,61.3l26-61.3h20.7v0.6
	C268.3,17.6,264.5,18.8,264.5,22.8z"/>
<circle class="st1" cx="286.5" cy="53.5" r="4"/>
<text transform="matrix(1 0 0 1 123.83 123.8545)" class="st1 st2 st3">A</text>
<text transform="matrix(1 0 0 1 139.54 123.8545)" class="st1 st2 st3">S</text>
<text transform="matrix(1 0 0 1 151.85 123.8545)" class="st1 st2 st3">T</text>
<text transform="matrix(1 0 0 1 165.92 123.8545)" class="st1 st2 st3">R</text>
<text transform="matrix(1 0 0 1 179.38 123.8545)" class="st1 st2 st3">O</text>
<text transform="matrix(1 0 0 1 196.41 123.8545)" class="st1 st2 st3">M</text>
<text transform="matrix(1 0 0 1 213.98 123.8545)" class="st1 st2 st3 st4">A</text>
<text transform="matrix(1 0 0 1 228.03 123.8545)" class="st1 st2 st3">TCH</text>
</svg>
