<svg id="Capa_1" data-name="Capa 1" xmlns="http://www.w3.org/2000/svg" viewBox="0 0 500 332"><defs><style>.cls-1,.cls-3{fill:none;stroke:#c6815c;}.cls-1{stroke-linecap:round;stroke-linejoin:round;stroke-width:1.67px;}.cls-2{fill:#c6815c;}.cls-3{stroke-miterlimit:10;}</style></defs><circle class="cls-1" cx="249.6" cy="122.39" r="23.45"/><path class="cls-1" d="M252.84,99.17A240.44,240.44,0,0,0,250.37,73l-.77-5.18L248.82,73a242.94,242.94,0,0,0-2.46,26.2,22.94,22.94,0,0,1,6.48,0Z"/><path class="cls-1" d="M246.36,145.62a240.44,240.44,0,0,0,2.47,26.2l.77,5.18.78-5.18a242.94,242.94,0,0,0,2.46-26.2,22.94,22.94,0,0,1-6.48,0Z"/><path class="cls-1" d="M272.83,125.63A242.76,242.76,0,0,0,299,123.17l5.19-.78-5.19-.77a240.26,240.26,0,0,0-26.19-2.47,24,24,0,0,1,0,6.48Z"/><path class="cls-1" d="M226.37,119.16a240.25,240.25,0,0,0-26.19,2.46l-5.19.78,5.19.77a237.79,237.79,0,0,0,26.19,2.46,24.43,24.43,0,0,1-.23-3.23A24.71,24.71,0,0,1,226.37,119.16Z"/><path class="cls-1" d="M240.16,92.1c-3.34-1.6-6.54-5.17-7.26-8.62s-1.78-8.49-6.53-8.33c0,0,4,2.63,3.91,7.11-.09,3.12-1.46,7,1,9.6s4.79,5.1,4.79,8a8.1,8.1,0,0,1-1,4.11h0a23.31,23.31,0,0,1,11.25-4.79S244.38,94.12,240.16,92.1Z"/><path class="cls-1" d="M259,92.1c3.34-1.6,6.54-5.17,7.26-8.62s1.78-8.49,6.52-8.33c0,0-4,2.63-3.9,7.11.09,3.12,1.46,7-1,9.6s-4.79,5.1-4.79,8a8.1,8.1,0,0,0,1,4.11h0a23.31,23.31,0,0,0-11.25-4.79S254.81,94.12,259,92.1Z"/><path class="cls-1" d="M259,152.65c3.34,1.6,6.54,5.17,7.26,8.62s1.77,8.49,6.52,8.33c0,0-4.05-2.63-3.91-7.11.1-3.12,1.46-7-1-9.6s-4.79-5.1-4.79-8a8.17,8.17,0,0,1,1-4.11h0a23.31,23.31,0,0,1-11.25,4.79S254.81,150.63,259,152.65Z"/><path class="cls-1" d="M240.16,152.65c-3.34,1.6-6.54,5.17-7.26,8.62s-1.78,8.49-6.53,8.33c0,0,4-2.63,3.91-7.11-.1-3.12-1.46-7,1-9.6s4.79-5.1,4.79-8a8.1,8.1,0,0,0-1-4.11h0a23.31,23.31,0,0,0,11.25,4.79S244.38,150.63,240.16,152.65Z"/><path class="cls-1" d="M235.46,103.68A239.07,239.07,0,0,0,215.2,86.9L211,83.78,214.1,88a244.58,244.58,0,0,0,16.78,20.26,25.76,25.76,0,0,1,2.13-2.45A24.42,24.42,0,0,1,235.46,103.68Z"/><path class="cls-1" d="M263.73,141.11A243.08,243.08,0,0,0,284,157.89l4.21,3.12-3.11-4.22a242.94,242.94,0,0,0-16.78-20.26,25.76,25.76,0,0,1-2.13,2.45A23.46,23.46,0,0,1,263.73,141.11Z"/><path class="cls-1" d="M268.31,108.26A241.25,241.25,0,0,0,285.1,88l3.11-4.21L284,86.9a239.21,239.21,0,0,0-20.27,16.78,22.24,22.24,0,0,1,2.45,2.13A23.2,23.2,0,0,1,268.31,108.26Z"/><path class="cls-1" d="M230.89,136.53a242.73,242.73,0,0,0-16.79,20.26L211,161l4.21-3.12a239.21,239.21,0,0,0,20.27-16.78A22.38,22.38,0,0,1,233,139,23.2,23.2,0,0,1,230.89,136.53Z"/><path class="cls-1" d="M279.87,112.93c1.6-3.33,5.17-6.53,8.63-7.25s8.49-1.78,8.33-6.53c0,0-2.64,4-7.12,3.91-3.12-.1-7-1.46-9.6,1s-5.1,4.79-8,4.79a8.1,8.1,0,0,1-4.11-1v0a23.46,23.46,0,0,1,4.79,11.25S277.85,117.16,279.87,112.93Z"/><path class="cls-1" d="M279.87,131.82c1.6,3.34,5.17,6.53,8.63,7.25s8.49,1.78,8.33,6.53c0,0-2.64-4-7.12-3.91-3.12.1-7,1.46-9.6-1s-5.1-4.78-8-4.78a8.17,8.17,0,0,0-4.11,1v0a23.42,23.42,0,0,0,4.79-11.25S277.85,127.59,279.87,131.82Z"/><path class="cls-1" d="M219.32,131.82c-1.6,3.33-5.16,6.53-8.62,7.25s-8.49,1.78-8.33,6.53c0,0,2.64-4,7.12-3.91,3.12.1,6.95,1.46,9.59-1s5.11-4.79,8-4.79a8.1,8.1,0,0,1,4.11,1v0a23.27,23.27,0,0,1-4.79-11.25S221.35,127.59,219.32,131.82Z"/><path class="cls-1" d="M219.32,112.93c-1.6-3.34-5.16-6.53-8.62-7.25s-8.49-1.78-8.33-6.53c0,0,2.64,4,7.12,3.91,3.12-.1,6.95-1.46,9.59,1s5.11,4.78,8,4.78a8.17,8.17,0,0,0,4.11-1v0a23.23,23.23,0,0,0-4.79,11.25S221.35,117.16,219.32,112.93Z"/><path class="cls-1" d="M263.69,119.28a3.08,3.08,0,0,1-1.33-1,4.81,4.81,0,0,0-6.64,0,3.08,3.08,0,0,1-1.33,1"/><path class="cls-1" d="M260.48,118.44A1.44,1.44,0,1,1,259,117,1.45,1.45,0,0,1,260.48,118.44Z"/><path class="cls-1" d="M253.94,117.87a26.87,26.87,0,0,1,2.57-2,6,6,0,0,1,4-.28,13.42,13.42,0,0,1,2.63,2.32"/><path class="cls-1" d="M253.18,126.61a2.61,2.61,0,0,1,.86,2.23c-.24,1.28-1.52,1.14-2.42,1.19s-1.38,1.19-2.38,1.14-1.47-1.09-2.37-1.14-2.19.09-2.42-1.19a2.61,2.61,0,0,1,.85-2.23"/><path class="cls-1" d="M248.15,129.17s-1-.42-.57-2.13.9-1.33.9-4v-6"/><path class="cls-1" d="M254.61,134.89a16,16,0,0,1-2,.11c-.76,0-1.1-.25-1.67-.23-1.14,0-1.08.43-1.75.46s-.61-.41-1.75-.46c-.57,0-.91.19-1.67.23a15.79,15.79,0,0,1-1.94-.11"/><path class="cls-1" d="M252.14,134.06s-1.19-.61-1.52-.52a9.61,9.61,0,0,0-1.38.86,9.07,9.07,0,0,0-1.38-.86c-.33-.09-1.51.52-1.51.52"/><path class="cls-1" d="M252.85,135.68a8.79,8.79,0,0,1-3.61,1.42,8.79,8.79,0,0,1-3.61-1.42"/><path class="cls-1" d="M252.85,112.89s4-4,11.25,0"/><path class="cls-1" d="M235.5,119.28a3,3,0,0,0,1.33-1,4.82,4.82,0,0,1,6.65,0,3,3,0,0,0,1.33,1"/><path class="cls-1" d="M238.72,118.44a1.44,1.44,0,1,0,1.44-1.44A1.44,1.44,0,0,0,238.72,118.44Z"/><path class="cls-1" d="M245.25,117.87a26.37,26.37,0,0,0-2.56-2,6,6,0,0,0-4-.28,13.42,13.42,0,0,0-2.63,2.32"/><path class="cls-1" d="M246.35,112.89s-4-4-11.26,0"/><path class="cls-2" d="M260,265.86v.44H227.9v-.44c7.72-.66,12.13-3.09,8.27-12.8L234,247.55h-42.9l-2.43,5.51c-4.08,9.49.33,11.48,6.51,12.8v.44h-20.3v-.44c4.63-1.32,7.28-3.42,11.36-12.91l24.38-56.25-.22-2.65,1.87-1.21,11-6.84c0,.88.22,1.87,2.54,7.61l23.28,58.79C253.05,262.55,255,265.2,260,265.86Zm-26.81-20.3-19.85-49.63-21.51,49.63Z"/><path class="cls-2" d="M316,195.27v64.64c0,4,3.87,5.18,8.39,5.74v.55H295.24v-.55c4.52-.56,8.38-1.77,8.38-5.74V194.72l-30.77,72.69-31.55-63v42.24c0,15,3.86,18.42,8.38,19v.55h-19v-.55c4.52-.56,8.38-1.77,8.38-16.77V200a27.49,27.49,0,0,0-8.93-11H247l30.66,61.33L303.62,189h20.74v.56C319.84,190.09,316,191.3,316,195.27Z"/><path class="cls-3" d="M232.67,22.07h33.86A124.57,124.57,0,0,1,391.1,146.64V305.07a0,0,0,0,1,0,0h-283a0,0,0,0,1,0,0V146.64A124.57,124.57,0,0,1,232.67,22.07Z"/><path class="cls-3" d="M225.67,15.07h47.86A124.57,124.57,0,0,1,398.1,139.64V312.07a0,0,0,0,1,0,0h-297a0,0,0,0,1,0,0V139.64A124.57,124.57,0,0,1,225.67,15.07Z"/><circle class="cls-2" cx="251" cy="37" r="4"/><circle class="cls-2" cx="121" cy="294" r="4"/><circle class="cls-2" cx="383" cy="294" r="4"/></svg>