<?xml version="1.0" encoding="utf-8"?>
<!-- Generator: Adobe Illustrator 25.0.0, SVG Export Plug-In . SVG Version: 6.00 Build 0)  -->
<svg version="1.1" id="Capa_1" xmlns="http://www.w3.org/2000/svg" xmlns:xlink="http://www.w3.org/1999/xlink" x="0px" y="0px"
	 viewBox="0 0 500 221" style="enable-background:new 0 0 500 221;" xml:space="preserve">
<style type="text/css">
	.st0{fill:none;stroke:#C6815C;stroke-width:1.6667;stroke-linecap:round;stroke-linejoin:round;stroke-miterlimit:10;}
	.st1{fill:none;stroke:#FFFFFF;stroke-width:1.6667;stroke-linecap:round;stroke-linejoin:round;stroke-miterlimit:10;}
	.st2{fill:#C6815C;}
	.st3{fill:#FFFFFF;}
	.st4{fill:none;stroke:#C6815C;stroke-miterlimit:10;}
</style>
<g>
	<g>
		<circle class="st0" cx="-279.4" cy="-370.6" r="23.4"/>
		<g>
			<g>
				<g>
					<path class="st0" d="M-276.2-393.8c-0.3-8.8-1.2-17.6-2.5-26.2l-0.8-5.2l-0.8,5.2c-1.3,8.6-2.1,17.4-2.5,26.2
						c1.1-0.1,2.1-0.2,3.2-0.2C-278.3-394.1-277.2-394-276.2-393.8z"/>
					<path class="st0" d="M-282.6-347.4c0.3,8.8,1.2,17.6,2.5,26.2l0.8,5.2l0.8-5.2c1.3-8.6,2.1-17.4,2.5-26.2
						c-1.1,0.1-2.1,0.2-3.2,0.2C-280.5-347.2-281.6-347.2-282.6-347.4z"/>
				</g>
				<g>
					<path class="st0" d="M-256.2-367.4c8.8-0.3,17.6-1.2,26.2-2.5l5.2-0.8l-5.2-0.8c-8.6-1.3-17.4-2.1-26.2-2.5
						c0.1,1.1,0.2,2.1,0.2,3.2S-256-368.4-256.2-367.4z"/>
					<path class="st0" d="M-302.6-373.8c-8.8,0.3-17.6,1.2-26.2,2.5l-5.2,0.8l5.2,0.8c8.6,1.3,17.4,2.1,26.2,2.5
						c-0.1-1.1-0.2-2.1-0.2-3.2C-302.9-371.7-302.8-372.8-302.6-373.8z"/>
				</g>
			</g>
			<g>
				<g>
					<path class="st0" d="M-288.8-400.9c-3.3-1.6-6.5-5.2-7.3-8.6c-0.7-3.5-1.8-8.5-6.5-8.3c0,0,4,2.6,3.9,7.1c-0.1,3.1-1.5,7,1,9.6
						c2.5,2.6,4.8,5.1,4.8,8c0,2.6-1,4.1-1,4.1l0,0c3.2-2.5,7-4.2,11.2-4.8C-282.6-393.8-284.6-398.9-288.8-400.9z"/>
					<path class="st0" d="M-270-400.9c3.3-1.6,6.5-5.2,7.3-8.6c0.7-3.5,1.8-8.5,6.5-8.3c0,0-4,2.6-3.9,7.1c0.1,3.1,1.5,7-1,9.6
						c-2.5,2.6-4.8,5.1-4.8,8c0,2.6,1,4.1,1,4.1l0,0c-3.2-2.5-7-4.2-11.2-4.8C-276.2-393.8-274.2-398.9-270-400.9z"/>
				</g>
				<g>
					<path class="st0" d="M-270-340.3c3.3,1.6,6.5,5.2,7.3,8.6c0.7,3.5,1.8,8.5,6.5,8.3c0,0-4-2.6-3.9-7.1c0.1-3.1,1.5-7-1-9.6
						c-2.5-2.6-4.8-5.1-4.8-8c0-2.6,1-4.1,1-4.1l0,0c-3.2,2.5-7,4.2-11.2,4.8C-276.2-347.4-274.2-342.4-270-340.3z"/>
					<path class="st0" d="M-288.8-340.3c-3.3,1.6-6.5,5.2-7.3,8.6c-0.7,3.5-1.8,8.5-6.5,8.3c0,0,4-2.6,3.9-7.1c-0.1-3.1-1.5-7,1-9.6
						c2.5-2.6,4.8-5.1,4.8-8c0-2.6-1-4.1-1-4.1l0,0c3.2,2.5,7,4.2,11.2,4.8C-282.6-347.4-284.6-342.4-288.8-340.3z"/>
				</g>
			</g>
			<g>
				<g>
					<path class="st0" d="M-293.5-389.3c-6.5-6-13.2-11.6-20.3-16.8l-4.2-3.1l3.1,4.2c5.2,7,10.8,13.8,16.8,20.3
						c0.6-0.9,1.4-1.7,2.1-2.5C-295.2-388-294.4-388.7-293.5-389.3z"/>
					<path class="st0" d="M-265.3-351.9c6.5,6,13.2,11.6,20.3,16.8l4.2,3.1l-3.1-4.2c-5.2-7-10.8-13.8-16.8-20.3
						c-0.6,0.9-1.4,1.7-2.1,2.5C-263.6-353.2-264.4-352.5-265.3-351.9z"/>
				</g>
				<g>
					<path class="st0" d="M-260.7-384.7c6-6.5,11.6-13.2,16.8-20.3l3.1-4.2l-4.2,3.1c-7,5.2-13.8,10.8-20.3,16.8
						c0.9,0.6,1.7,1.4,2.5,2.1S-261.3-385.6-260.7-384.7z"/>
					<path class="st0" d="M-298.1-356.5c-6,6.5-11.6,13.2-16.8,20.3l-3.1,4.2l4.2-3.1c7-5.2,13.8-10.8,20.3-16.8
						c-0.9-0.6-1.7-1.4-2.5-2.1C-296.8-354.8-297.5-355.6-298.1-356.5z"/>
				</g>
			</g>
			<g>
				<g>
					<path class="st0" d="M-249.1-380.1c1.6-3.3,5.2-6.5,8.6-7.3c3.5-0.7,8.5-1.8,8.3-6.5c0,0-2.6,4-7.1,3.9c-3.1-0.1-7-1.5-9.6,1
						c-2.6,2.5-5.1,4.8-8,4.8c-2.6,0-4.1-1-4.1-1l0,0c2.5,3.2,4.2,7,4.8,11.2C-256.2-373.9-251.2-375.8-249.1-380.1z"/>
					<path class="st0" d="M-249.1-361.2c1.6,3.3,5.2,6.5,8.6,7.3c3.5,0.7,8.5,1.8,8.3,6.5c0,0-2.6-4-7.1-3.9c-3.1,0.1-7,1.5-9.6-1
						c-2.6-2.5-5.1-4.8-8-4.8c-2.6,0-4.1,1-4.1,1l0,0c2.5-3.2,4.2-7,4.8-11.2C-256.2-367.4-251.2-365.4-249.1-361.2z"/>
				</g>
				<g>
					<path class="st0" d="M-309.7-361.2c-1.6,3.3-5.2,6.5-8.6,7.3c-3.5,0.7-8.5,1.8-8.3,6.5c0,0,2.6-4,7.1-3.9c3.1,0.1,7,1.5,9.6-1
						c2.6-2.5,5.1-4.8,8-4.8c2.6,0,4.1,1,4.1,1l0,0c-2.5-3.2-4.2-7-4.8-11.2C-302.6-367.4-307.7-365.4-309.7-361.2z"/>
					<path class="st0" d="M-309.7-380.1c-1.6-3.3-5.2-6.5-8.6-7.3c-3.5-0.7-8.5-1.8-8.3-6.5c0,0,2.6,4,7.1,3.9c3.1-0.1,7-1.5,9.6,1
						c2.6,2.5,5.1,4.8,8,4.8c2.6,0,4.1-1,4.1-1l0,0c-2.5,3.2-4.2,7-4.8,11.2C-302.6-373.9-307.7-375.8-309.7-380.1z"/>
				</g>
			</g>
		</g>
	</g>
	<g>
		<path class="st0" d="M-265.3-373.7c0,0-0.9-0.3-1.3-0.9c-0.4-0.6-2-1.3-3.3-1.3c-1.3,0-2.9,0.7-3.3,1.3c-0.4,0.6-1.3,0.9-1.3,0.9"
			/>
		<path class="st0" d="M-268.5-374.6c0,0.8-0.6,1.4-1.4,1.4c-0.8,0-1.4-0.6-1.4-1.4c0-0.8,0.6-1.4,1.4-1.4
			C-269.2-376-268.5-375.4-268.5-374.6z"/>
		<path class="st0" d="M-275.1-375.1c0,0,1.8-1.6,2.6-2c0.8-0.5,3-0.7,4-0.3c0.9,0.4,2.6,2.3,2.6,2.3"/>
		<path class="st0" d="M-275.8-366.4c0,0,1.1,0.9,0.9,2.2c-0.2,1.3-1.5,1.1-2.4,1.2c-0.9,0-1.4,1.2-2.4,1.1c-1,0-1.5-1.1-2.4-1.1
			c-0.9,0-2.2,0.1-2.4-1.2c-0.2-1.3,0.9-2.2,0.9-2.2"/>
		<path class="st0" d="M-280.9-363.8c0,0-0.9-0.4-0.6-2.1c0.4-1.7,0.9-1.3,0.9-4c0-2.7,0-6,0-6"/>
		<path class="st0" d="M-274.4-358.1c0,0-1.2,0.1-1.9,0.1c-0.8,0-1.1-0.2-1.7-0.2c-1.1,0-1.1,0.4-1.8,0.5c-0.7,0-0.6-0.4-1.8-0.5
			c-0.6,0-0.9,0.2-1.7,0.2c-0.8,0-1.9-0.1-1.9-0.1"/>
		<path class="st0" d="M-276.9-358.9c0,0-1.2-0.6-1.5-0.5c-0.3,0.1-1.4,0.9-1.4,0.9s-1-0.8-1.4-0.9c-0.3-0.1-1.5,0.5-1.5,0.5"/>
		<path class="st0" d="M-276.1-357.3c0,0-2.1,1.4-3.6,1.4c-1.5,0-3.6-1.4-3.6-1.4"/>
		<path class="st0" d="M-276.1-380.1c0,0,4-4,11.3,0"/>
		<path class="st0" d="M-293.5-373.7c0,0,0.9-0.3,1.3-0.9c0.4-0.6,2-1.3,3.3-1.3s2.9,0.7,3.3,1.3s1.3,0.9,1.3,0.9"/>
		<path class="st0" d="M-290.3-374.6c0,0.8,0.6,1.4,1.4,1.4c0.8,0,1.4-0.6,1.4-1.4c0-0.8-0.6-1.4-1.4-1.4
			C-289.6-376-290.3-375.4-290.3-374.6z"/>
		<path class="st0" d="M-283.7-375.1c0,0-1.8-1.6-2.6-2c-0.8-0.5-3-0.7-4-0.3c-0.9,0.4-2.6,2.3-2.6,2.3"/>
		<path class="st0" d="M-282.7-380.1c0,0-4-4-11.3,0"/>
	</g>
</g>
<g>
	<g>
		<circle class="st1" cx="99.4" cy="106.9" r="40"/>
		<g>
			<g>
				<g>
					<path class="st1" d="M104.9,67.3c-0.6-15-2-29.9-4.2-44.7l-1.3-8.8l-1.3,8.8c-2.2,14.7-3.6,29.7-4.2,44.7
						c1.8-0.2,3.6-0.4,5.5-0.4C101.3,66.9,103.1,67,104.9,67.3z"/>
					<path class="st1" d="M93.9,146.5c0.6,15,2,29.9,4.2,44.7l1.3,8.8l1.3-8.8c2.2-14.7,3.6-29.7,4.2-44.7c-1.8,0.2-3.6,0.4-5.5,0.4
						C97.5,146.9,95.7,146.7,93.9,146.5z"/>
				</g>
				<g>
					<path class="st1" d="M139,112.4c15-0.6,29.9-2,44.7-4.2l8.8-1.3l-8.8-1.3c-14.7-2.2-29.7-3.6-44.7-4.2c0.2,1.8,0.4,3.6,0.4,5.5
						C139.4,108.8,139.2,110.6,139,112.4z"/>
					<path class="st1" d="M59.8,101.4c-15,0.6-29.9,2-44.7,4.2l-8.8,1.3l8.8,1.3c14.7,2.2,29.7,3.6,44.7,4.2
						c-0.2-1.8-0.4-3.6-0.4-5.5C59.4,105,59.5,103.2,59.8,101.4z"/>
				</g>
			</g>
			<g>
				<g>
					<path class="st1" d="M83.3,55.2c-5.7-2.7-11.1-8.8-12.4-14.7c-1.2-5.9-3-14.5-11.1-14.2c0,0,6.9,4.5,6.7,12.1
						c-0.2,5.3-2.5,11.9,1.7,16.4c4.2,4.5,8.2,8.7,8.2,13.6c0,4.4-1.7,7-1.7,7l0,0c5.4-4.3,12-7.2,19.2-8.2
						C93.9,67.3,90.5,58.7,83.3,55.2z"/>
					<path class="st1" d="M115.5,55.2c5.7-2.7,11.1-8.8,12.4-14.7c1.2-5.9,3-14.5,11.1-14.2c0,0-6.9,4.5-6.7,12.1
						c0.2,5.3,2.5,11.9-1.7,16.4c-4.2,4.5-8.2,8.7-8.2,13.6c0,4.4,1.7,7,1.7,7l0,0c-5.4-4.3-12-7.2-19.2-8.2
						C104.9,67.3,108.3,58.7,115.5,55.2z"/>
				</g>
				<g>
					<path class="st1" d="M115.5,158.5c5.7,2.7,11.1,8.8,12.4,14.7c1.2,5.9,3,14.5,11.1,14.2c0,0-6.9-4.5-6.7-12.1
						c0.2-5.3,2.5-11.9-1.7-16.4c-4.2-4.5-8.2-8.7-8.2-13.6c0-4.4,1.7-7,1.7-7l0,0c-5.4,4.3-12,7.2-19.2,8.2
						C104.9,146.4,108.3,155,115.5,158.5z"/>
					<path class="st1" d="M83.3,158.5c-5.7,2.7-11.1,8.8-12.4,14.7c-1.2,5.9-3,14.5-11.1,14.2c0,0,6.9-4.5,6.7-12.1
						c-0.2-5.3-2.5-11.9,1.7-16.4c4.2-4.5,8.2-8.7,8.2-13.6c0-4.4-1.7-7-1.7-7l0,0c5.4,4.3,12,7.2,19.2,8.2
						C93.9,146.4,90.5,155,83.3,158.5z"/>
				</g>
			</g>
			<g>
				<g>
					<path class="st1" d="M75.3,75c-11-10.2-22.6-19.8-34.6-28.6L33.5,41l5.3,7.2c8.9,12,18.4,23.5,28.6,34.6
						c1.1-1.5,2.3-2.9,3.6-4.2C72.4,77.3,73.8,76.1,75.3,75z"/>
					<path class="st1" d="M123.5,138.8c11,10.2,22.6,19.8,34.6,28.6l7.2,5.3l-5.3-7.2c-8.9-12-18.4-23.5-28.6-34.6
						c-1.1,1.5-2.3,2.9-3.6,4.2C126.3,136.5,124.9,137.7,123.5,138.8z"/>
				</g>
				<g>
					<path class="st1" d="M131.3,82.8c10.2-11,19.8-22.6,28.6-34.6l5.3-7.2l-7.2,5.3c-12,8.9-23.5,18.4-34.6,28.6
						c1.5,1.1,2.9,2.3,4.2,3.6C129,79.9,130.2,81.3,131.3,82.8z"/>
					<path class="st1" d="M67.5,131c-10.2,11-19.8,22.6-28.6,34.6l-5.3,7.2l7.2-5.3c12-8.9,23.5-18.4,34.6-28.6
						c-1.5-1.1-2.9-2.3-4.2-3.6C69.8,133.8,68.6,132.4,67.5,131z"/>
				</g>
			</g>
			<g>
				<g>
					<path class="st1" d="M151,90.7c2.7-5.7,8.8-11.1,14.7-12.4c5.9-1.2,14.5-3,14.2-11.1c0,0-4.5,6.9-12.1,6.7
						c-5.3-0.2-11.9-2.5-16.4,1.7c-4.5,4.2-8.7,8.2-13.6,8.2c-4.4,0-7-1.7-7-1.7l0,0c4.3,5.4,7.2,12,8.2,19.2
						C139,101.3,147.6,98,151,90.7z"/>
					<path class="st1" d="M151,122.9c2.7,5.7,8.8,11.1,14.7,12.4c5.9,1.2,14.5,3,14.2,11.1c0,0-4.5-6.9-12.1-6.7
						c-5.3,0.2-11.9,2.5-16.4-1.7c-4.5-4.2-8.7-8.2-13.6-8.2c-4.4,0-7,1.7-7,1.7l0,0c4.3-5.4,7.2-12,8.2-19.2
						C139,112.4,147.6,115.7,151,122.9z"/>
				</g>
				<g>
					<path class="st1" d="M47.8,122.9c-2.7,5.7-8.8,11.1-14.7,12.4c-5.9,1.2-14.5,3-14.2,11.1c0,0,4.5-6.9,12.1-6.7
						c5.3,0.2,11.9,2.5,16.4-1.7c4.5-4.2,8.7-8.2,13.6-8.2c4.4,0,7,1.7,7,1.7l0,0c-4.3-5.4-7.2-12-8.2-19.2
						C59.8,112.4,51.2,115.7,47.8,122.9z"/>
					<path class="st1" d="M47.8,90.7C45,85.1,38.9,79.6,33,78.4c-5.9-1.2-14.5-3-14.2-11.1c0,0,4.5,6.9,12.1,6.7
						c5.3-0.2,11.9-2.5,16.4,1.7c4.5,4.2,8.7,8.2,13.6,8.2c4.4,0,7-1.7,7-1.7l0,0c-4.3,5.4-7.2,12-8.2,19.2
						C59.8,101.3,51.2,98,47.8,90.7z"/>
				</g>
			</g>
		</g>
	</g>
	<g>
		<path class="st1" d="M123.4,101.6c0,0-1.5-0.5-2.3-1.6c-0.7-1.1-3.4-2.3-5.7-2.3c-2.3,0-4.9,1.2-5.7,2.3c-0.7,1.1-2.3,1.6-2.3,1.6
			"/>
		<path class="st1" d="M117.9,100.1c0,1.4-1.1,2.5-2.5,2.5s-2.5-1.1-2.5-2.5c0-1.4,1.1-2.5,2.5-2.5S117.9,98.8,117.9,100.1z"/>
		<path class="st1" d="M106.8,99.2c0,0,3-2.7,4.4-3.5c1.4-0.8,5.2-1.2,6.8-0.5c1.6,0.7,4.5,4,4.5,4"/>
		<path class="st1" d="M105.5,114.1c0,0,1.9,1.6,1.5,3.8c-0.4,2.2-2.6,1.9-4.1,2c-1.5,0.1-2.3,2-4,1.9c-1.7,0.1-2.5-1.9-4-1.9
			c-1.5-0.1-3.7,0.2-4.1-2c-0.4-2.2,1.5-3.8,1.5-3.8"/>
		<path class="st1" d="M96.9,118.4c0,0-1.6-0.7-1-3.6c0.6-2.9,1.5-2.3,1.5-6.9c0-4.6,0-10.2,0-10.2"/>
		<path class="st1" d="M107.9,128.2c0,0-2,0.2-3.3,0.2c-1.3-0.1-1.9-0.4-2.8-0.4c-1.9,0.1-1.9,0.7-3,0.8c-1.1,0-1-0.7-3-0.8
			c-1,0-1.5,0.3-2.8,0.4c-1.3,0.1-3.3-0.2-3.3-0.2"/>
		<path class="st1" d="M103.7,126.8c0,0-2-1.1-2.6-0.9c-0.6,0.2-2.3,1.5-2.3,1.5s-1.8-1.3-2.3-1.5c-0.6-0.2-2.6,0.9-2.6,0.9"/>
		<path class="st1" d="M104.9,129.5c0,0-3.6,2.4-6.2,2.4c-2.5,0-6.2-2.4-6.2-2.4"/>
		<path class="st1" d="M104.9,90.7c0,0,6.9-6.8,19.2,0"/>
		<path class="st1" d="M75.3,101.6c0,0,1.5-0.5,2.3-1.6c0.7-1.1,3.4-2.3,5.7-2.3c2.3,0,4.9,1.2,5.7,2.3c0.7,1.1,2.3,1.6,2.3,1.6"/>
		<path class="st1" d="M80.8,100.1c0,1.4,1.1,2.5,2.5,2.5c1.4,0,2.5-1.1,2.5-2.5c0-1.4-1.1-2.5-2.5-2.5
			C81.9,97.7,80.8,98.8,80.8,100.1z"/>
		<path class="st1" d="M92,99.2c0,0-3-2.7-4.4-3.5c-1.4-0.8-5.2-1.2-6.8-0.5c-1.6,0.7-4.5,4-4.5,4"/>
		<path class="st1" d="M93.8,90.7c0,0-6.9-6.8-19.2,0"/>
	</g>
</g>
<g>
	<g>
		<path class="st2" d="M-269-227.1v0.4h-32.1v-0.4c7.7-0.7,12.1-3.1,8.3-12.8l-2.2-5.5h-42.9l-2.4,5.5c-4.1,9.5,0.3,11.5,6.5,12.8
			v0.4h-20.3v-0.4c4.6-1.3,7.3-3.4,11.4-12.9l24.4-56.3l-0.2-2.6l1.9-1.2l11-6.8c0,0.9,0.2,1.9,2.5,7.6l23.3,58.8
			C-276-230.4-274-227.8-269-227.1z M-295.8-247.4l-19.9-49.6l-21.5,49.6H-295.8z"/>
	</g>
	<g>
		<path class="st2" d="M-213-297.7v64.6c0,4,3.9,5.2,8.4,5.7v0.6h-29.1v-0.6c4.5-0.6,8.4-1.8,8.4-5.7v-65.2l-30.8,72.7l-31.5-63
			v42.2c0,15,3.9,18.4,8.4,19v0.6h-19v-0.6c4.5-0.6,8.4-1.8,8.4-16.8V-293c-2.1-4.2-4.2-7.5-8.9-11h16.9l30.7,61.3l25.9-61.3h20.7
			v0.6C-209.2-302.9-213-301.7-213-297.7z"/>
	</g>
</g>
<g>
	<g>
		<path class="st3" d="M354.2,165.7v0.8h-54.7v-0.8c13.2-1.1,20.7-5.3,14.1-21.8l-3.8-9.4h-73.2l-4.1,9.4
			c-7,16.2,0.6,19.6,11.1,21.8v0.8h-34.6v-0.8c7.9-2.3,12.4-5.8,19.4-22l41.6-95.9l-0.4-4.5l3.2-2.1l18.8-11.7c0,1.5,0.4,3.2,4.3,13
			l39.7,100.3C342.3,160,345.7,164.5,354.2,165.7z M308.4,131l-33.9-84.6L237.9,131H308.4z"/>
	</g>
	<g>
		<path class="st3" d="M449.6,45.3v110.2c0,6.8,6.6,8.8,14.3,9.8v0.9h-49.7v-0.9c7.7-0.9,14.3-3,14.3-9.8V44.3l-52.5,124L322.3,60.9
			v72c0,25.6,6.6,31.4,14.3,32.4v0.9h-32.4v-0.9c7.7-0.9,14.3-3,14.3-28.6V53.4c-3.6-7.1-7.1-12.8-15.2-18.8h28.8l52.3,104.6
			l44.2-104.6h35.4v0.9C456.2,36.4,449.6,38.5,449.6,45.3z"/>
	</g>
</g>
<path class="st4" d="M-137.9-187.9h-283v-158.4c0-68.8,55.8-124.6,124.6-124.6h33.9c68.8,0,124.6,55.8,124.6,124.6V-187.9z"/>
<path class="st4" d="M-130.9-180.9h-297v-172.4c0-68.8,55.8-124.6,124.6-124.6h47.9c68.8,0,124.6,55.8,124.6,124.6V-180.9z"/>
<circle class="st2" cx="-278" cy="-456" r="4"/>
<circle class="st3" cx="487.2" cy="97.7" r="6.8"/>
<circle class="st2" cx="-408" cy="-199" r="4"/>
<circle class="st2" cx="-146" cy="-199" r="4"/>
<g>
	<g>
		<circle class="st0" cx="136.6" cy="-317.6" r="23.4"/>
		<g>
			<g>
				<g>
					<path class="st0" d="M139.8-340.8c-0.3-8.8-1.2-17.6-2.5-26.2l-0.8-5.2l-0.8,5.2c-1.3,8.6-2.1,17.4-2.5,26.2
						c1.1-0.1,2.1-0.2,3.2-0.2C137.7-341.1,138.8-341,139.8-340.8z"/>
					<path class="st0" d="M133.4-294.4c0.3,8.8,1.2,17.6,2.5,26.2l0.8,5.2l0.8-5.2c1.3-8.6,2.1-17.4,2.5-26.2
						c-1.1,0.1-2.1,0.2-3.2,0.2C135.5-294.2,134.4-294.2,133.4-294.4z"/>
				</g>
				<g>
					<path class="st0" d="M159.8-314.4c8.8-0.3,17.6-1.2,26.2-2.5l5.2-0.8l-5.2-0.8c-8.6-1.3-17.4-2.1-26.2-2.5
						c0.1,1.1,0.2,2.1,0.2,3.2S160-315.4,159.8-314.4z"/>
					<path class="st0" d="M113.4-320.8c-8.8,0.3-17.6,1.2-26.2,2.5l-5.2,0.8l5.2,0.8c8.6,1.3,17.4,2.1,26.2,2.5
						c-0.1-1.1-0.2-2.1-0.2-3.2C113.1-318.7,113.2-319.8,113.4-320.8z"/>
				</g>
			</g>
			<g>
				<g>
					<path class="st0" d="M127.2-347.9c-3.3-1.6-6.5-5.2-7.3-8.6c-0.7-3.5-1.8-8.5-6.5-8.3c0,0,4,2.6,3.9,7.1c-0.1,3.1-1.5,7,1,9.6
						c2.5,2.6,4.8,5.1,4.8,8c0,2.6-1,4.1-1,4.1l0,0c3.2-2.5,7-4.2,11.2-4.8C133.4-340.8,131.4-345.9,127.2-347.9z"/>
					<path class="st0" d="M146-347.9c3.3-1.6,6.5-5.2,7.3-8.6c0.7-3.5,1.8-8.5,6.5-8.3c0,0-4,2.6-3.9,7.1c0.1,3.1,1.5,7-1,9.6
						c-2.5,2.6-4.8,5.1-4.8,8c0,2.6,1,4.1,1,4.1l0,0c-3.2-2.5-7-4.2-11.2-4.8C139.8-340.8,141.8-345.9,146-347.9z"/>
				</g>
				<g>
					<path class="st0" d="M146-287.3c3.3,1.6,6.5,5.2,7.3,8.6c0.7,3.5,1.8,8.5,6.5,8.3c0,0-4-2.6-3.9-7.1c0.1-3.1,1.5-7-1-9.6
						c-2.5-2.6-4.8-5.1-4.8-8c0-2.6,1-4.1,1-4.1l0,0c-3.2,2.5-7,4.2-11.2,4.8C139.8-294.4,141.8-289.4,146-287.3z"/>
					<path class="st0" d="M127.2-287.3c-3.3,1.6-6.5,5.2-7.3,8.6c-0.7,3.5-1.8,8.5-6.5,8.3c0,0,4-2.6,3.9-7.1c-0.1-3.1-1.5-7,1-9.6
						c2.5-2.6,4.8-5.1,4.8-8c0-2.6-1-4.1-1-4.1l0,0c3.2,2.5,7,4.2,11.2,4.8C133.4-294.4,131.4-289.4,127.2-287.3z"/>
				</g>
			</g>
			<g>
				<g>
					<path class="st0" d="M122.5-336.3c-6.5-6-13.2-11.6-20.3-16.8l-4.2-3.1l3.1,4.2c5.2,7,10.8,13.8,16.8,20.3
						c0.6-0.9,1.4-1.7,2.1-2.5C120.8-335,121.6-335.7,122.5-336.3z"/>
					<path class="st0" d="M150.7-298.9c6.5,6,13.2,11.6,20.3,16.8l4.2,3.1l-3.1-4.2c-5.2-7-10.8-13.8-16.8-20.3
						c-0.6,0.9-1.4,1.7-2.1,2.5C152.4-300.2,151.6-299.5,150.7-298.9z"/>
				</g>
				<g>
					<path class="st0" d="M155.3-331.7c6-6.5,11.6-13.2,16.8-20.3l3.1-4.2l-4.2,3.1c-7,5.2-13.8,10.8-20.3,16.8
						c0.9,0.6,1.7,1.4,2.5,2.1C154-333.4,154.7-332.6,155.3-331.7z"/>
					<path class="st0" d="M117.9-303.5c-6,6.5-11.6,13.2-16.8,20.3L98-279l4.2-3.1c7-5.2,13.8-10.8,20.3-16.8
						c-0.9-0.6-1.7-1.4-2.5-2.1C119.2-301.8,118.5-302.6,117.9-303.5z"/>
				</g>
			</g>
			<g>
				<g>
					<path class="st0" d="M166.9-327.1c1.6-3.3,5.2-6.5,8.6-7.3c3.5-0.7,8.5-1.8,8.3-6.5c0,0-2.6,4-7.1,3.9c-3.1-0.1-7-1.5-9.6,1
						c-2.6,2.5-5.1,4.8-8,4.8c-2.6,0-4.1-1-4.1-1l0,0c2.5,3.2,4.2,7,4.8,11.2C159.8-320.9,164.8-322.8,166.9-327.1z"/>
					<path class="st0" d="M166.9-308.2c1.6,3.3,5.2,6.5,8.6,7.3c3.5,0.7,8.5,1.8,8.3,6.5c0,0-2.6-4-7.1-3.9c-3.1,0.1-7,1.5-9.6-1
						c-2.6-2.5-5.1-4.8-8-4.8c-2.6,0-4.1,1-4.1,1l0,0c2.5-3.2,4.2-7,4.8-11.2C159.8-314.4,164.8-312.4,166.9-308.2z"/>
				</g>
				<g>
					<path class="st0" d="M106.3-308.2c-1.6,3.3-5.2,6.5-8.6,7.3c-3.5,0.7-8.5,1.8-8.3,6.5c0,0,2.6-4,7.1-3.9c3.1,0.1,7,1.5,9.6-1
						c2.6-2.5,5.1-4.8,8-4.8c2.6,0,4.1,1,4.1,1l0,0c-2.5-3.2-4.2-7-4.8-11.2C113.4-314.4,108.3-312.4,106.3-308.2z"/>
					<path class="st0" d="M106.3-327.1c-1.6-3.3-5.2-6.5-8.6-7.3c-3.5-0.7-8.5-1.8-8.3-6.5c0,0,2.6,4,7.1,3.9c3.1-0.1,7-1.5,9.6,1
						c2.6,2.5,5.1,4.8,8,4.8c2.6,0,4.1-1,4.1-1l0,0c-2.5,3.2-4.2,7-4.8,11.2C113.4-320.9,108.3-322.8,106.3-327.1z"/>
				</g>
			</g>
		</g>
	</g>
	<g>
		<path class="st0" d="M150.7-320.7c0,0-0.9-0.3-1.3-0.9c-0.4-0.6-2-1.3-3.3-1.3c-1.3,0-2.9,0.7-3.3,1.3c-0.4,0.6-1.3,0.9-1.3,0.9"
			/>
		<path class="st0" d="M147.5-321.6c0,0.8-0.6,1.4-1.4,1.4s-1.4-0.6-1.4-1.4c0-0.8,0.6-1.4,1.4-1.4S147.5-322.4,147.5-321.6z"/>
		<path class="st0" d="M140.9-322.1c0,0,1.8-1.6,2.6-2c0.8-0.5,3-0.7,4-0.3c0.9,0.4,2.6,2.3,2.6,2.3"/>
		<path class="st0" d="M140.2-313.4c0,0,1.1,0.9,0.9,2.2c-0.2,1.3-1.5,1.1-2.4,1.2c-0.9,0-1.4,1.2-2.4,1.1c-1,0-1.5-1.1-2.4-1.1
			c-0.9,0-2.2,0.1-2.4-1.2c-0.2-1.3,0.9-2.2,0.9-2.2"/>
		<path class="st0" d="M135.1-310.8c0,0-0.9-0.4-0.6-2.1c0.4-1.7,0.9-1.3,0.9-4c0-2.7,0-6,0-6"/>
		<path class="st0" d="M141.6-305.1c0,0-1.2,0.1-1.9,0.1c-0.8,0-1.1-0.2-1.7-0.2c-1.1,0-1.1,0.4-1.8,0.5c-0.7,0-0.6-0.4-1.8-0.5
			c-0.6,0-0.9,0.2-1.7,0.2c-0.8,0-1.9-0.1-1.9-0.1"/>
		<path class="st0" d="M139.1-305.9c0,0-1.2-0.6-1.5-0.5c-0.3,0.1-1.4,0.9-1.4,0.9s-1-0.8-1.4-0.9c-0.3-0.1-1.5,0.5-1.5,0.5"/>
		<path class="st0" d="M139.9-304.3c0,0-2.1,1.4-3.6,1.4c-1.5,0-3.6-1.4-3.6-1.4"/>
		<path class="st0" d="M139.9-327.1c0,0,4-4,11.3,0"/>
		<path class="st0" d="M122.5-320.7c0,0,0.9-0.3,1.3-0.9c0.4-0.6,2-1.3,3.3-1.3c1.3,0,2.9,0.7,3.3,1.3s1.3,0.9,1.3,0.9"/>
		<path class="st0" d="M125.7-321.6c0,0.8,0.6,1.4,1.4,1.4c0.8,0,1.4-0.6,1.4-1.4c0-0.8-0.6-1.4-1.4-1.4
			C126.4-323,125.7-322.4,125.7-321.6z"/>
		<path class="st0" d="M132.3-322.1c0,0-1.8-1.6-2.6-2c-0.8-0.5-3-0.7-4-0.3c-0.9,0.4-2.6,2.3-2.6,2.3"/>
		<path class="st0" d="M133.3-327.1c0,0-4-4-11.3,0"/>
	</g>
</g>
<g>
	<g>
		<path class="st2" d="M286-283.1v0.4h-32.1v-0.4c7.7-0.7,12.1-3.1,8.3-12.8l-2.2-5.5h-42.9l-2.4,5.5c-4.1,9.5,0.3,11.5,6.5,12.8
			v0.4h-20.3v-0.4c4.6-1.3,7.3-3.4,11.4-12.9l24.4-56.3l-0.2-2.6l1.9-1.2l11-6.8c0,0.9,0.2,1.9,2.5,7.6l23.3,58.8
			C279-286.4,281-283.8,286-283.1z M259.2-303.4l-19.9-49.6l-21.5,49.6H259.2z"/>
	</g>
	<g>
		<path class="st2" d="M342-353.7v64.6c0,4,3.9,5.2,8.4,5.7v0.6h-29.1v-0.6c4.5-0.6,8.4-1.8,8.4-5.7v-65.2l-30.8,72.7l-31.5-63v42.2
			c0,15,3.9,18.4,8.4,19v0.6h-19v-0.6c4.5-0.6,8.4-1.8,8.4-16.8V-349c-2.1-4.2-4.2-7.5-8.9-11H273l30.7,61.3l25.9-61.3h20.7v0.6
			C345.8-358.9,342-357.7,342-353.7z"/>
	</g>
</g>
<circle class="st2" cx="364" cy="-323" r="4"/>
<text transform="matrix(1 0 0 1 201.3203 -252.6895)" class="st2" style="font-family:'RoxboroughCF-Thin'; font-size:20.6959px;">ASTROMATCH</text>
</svg>
